<svg width="43" height="43" viewBox="0 0 43 43" fill="none" xmlns="http://www.w3.org/2000/svg">
<path fill-rule="evenodd" clip-rule="evenodd" d="M39.7409 24.9892L42.2594 27.5143C42.7222 27.9771 42.9822 28.6049 42.9822 29.2596C42.9822 29.9142 42.7222 30.542 42.2594 31.0049L41.4827 31.7876C41.7341 31.909 41.9637 32.0711 42.1623 32.2674L42.2594 32.3646C43.2238 33.3304 43.2238 34.8951 42.2594 35.8609L40.4148 37.7061L42.2594 39.5628C42.564 39.8828 42.564 40.3855 42.2594 40.7054L40.666 42.2765C40.3462 42.5812 39.8437 42.5812 39.5238 42.2765L37.6906 40.4312L35.846 42.2765C34.8805 43.2412 33.3163 43.2412 32.3508 42.2765L32.2537 42.1794C32.0573 41.9787 31.8952 41.7471 31.774 41.4938L30.9916 42.2765C30.5289 42.7394 29.9013 42.9995 29.2469 42.9995C28.5925 42.9995 27.9649 42.7394 27.5022 42.2765L24.9779 39.7399C24.5151 39.2771 24.2551 38.6493 24.2551 37.9946C24.2551 37.34 24.5151 36.7122 24.9779 36.2493L29.0556 32.1703L23.2075 26.326L9.37545 40.1684C9.33215 40.209 9.26963 40.2509 9.2061 40.2935C9.13554 40.3407 9.06374 40.3888 9.01565 40.4369L1.75125 42.5907C1.4707 42.6832 1.16197 42.6097 0.953091 42.4008C0.744208 42.1918 0.67078 41.883 0.763251 41.6024L3.00768 34.3355C3.01056 34.1953 3.07538 34.0635 3.18472 33.9756L17.0225 20.1332L10.8203 13.9404L6.74267 18.0194C5.77461 18.9778 4.2156 18.9778 3.24754 18.0194L0.723274 15.4943C-0.237956 14.5272 -0.237956 12.9651 0.723274 11.998L1.49997 11.2039C1.24857 11.0824 1.01894 10.9203 0.820361 10.724L0.723274 10.6269C-0.241091 9.66107 -0.241091 8.09638 0.723274 7.13057L2.55651 5.29101L0.711852 3.42859C0.404331 3.10985 0.404331 2.60475 0.711852 2.28601L2.28238 0.714956C2.5998 0.404327 3.10716 0.404327 3.42458 0.714956L5.29208 2.56023L7.12531 0.726381C8.09209 -0.235171 9.65367 -0.235171 10.6204 0.726381L10.7175 0.823501C10.9138 1.02215 11.0759 1.25185 11.1973 1.50334L11.9797 0.720668C12.9445 -0.240223 14.5043 -0.240223 15.4691 0.720668L17.9934 3.24578C18.9546 4.21288 18.9546 5.77499 17.9934 6.74209L13.9157 10.8154L20.1236 17.0311L36.0458 1.10343C37.04 0.121877 38.6382 0.121877 39.6324 1.10343L42.2594 3.70853C43.2469 4.70047 43.2469 6.30431 42.2594 7.29624L26.3143 23.2182L32.1681 29.0682L36.2457 24.9892C37.2112 24.0245 38.7754 24.0245 39.7409 24.9892ZM38.553 2.18318C38.1432 1.82252 37.5293 1.82252 37.1195 2.18318L34.4296 4.87396L38.4673 8.913L41.1572 6.22222C41.5186 5.8104 41.5186 5.19437 41.1572 4.78256L38.553 2.18318ZM33.356 5.94799L37.3879 9.98703L25.2406 22.1441L21.2029 18.1051L33.356 5.94799ZM2.85919 2.4574L2.45942 2.8573L3.72155 4.11986L4.12132 3.71424L2.85919 2.4574ZM1.88832 8.29029L8.29036 1.88611C8.61017 1.58142 9.11274 1.58142 9.43256 1.88611L9.52964 1.98322C9.83423 2.30315 9.83423 2.80589 9.52964 3.12581L3.14474 9.55856C2.82492 9.86325 2.32236 9.86325 2.00254 9.55856L1.90545 9.46144C1.57967 9.14495 1.56948 8.62503 1.88261 8.29601L1.88832 8.29029ZM5.57192 16.8368L9.65529 12.7521L12.7507 9.65568L16.7998 5.5538C17.1043 5.23388 17.1043 4.73114 16.7998 4.41122L14.2755 1.88611C13.9557 1.58142 13.4531 1.58142 13.1333 1.88611L10.7175 4.3141L4.30407 10.7411L1.88261 13.1691C1.57509 13.4879 1.57509 13.993 1.88261 14.3117L4.42972 16.8368C4.74953 17.1415 5.2521 17.1415 5.57192 16.8368ZM2.64788 40.7054L4.08135 35.9523L7.42228 39.2715L2.64788 40.7054ZM4.80093 34.5126L8.8329 38.5517L22.1338 25.2463L18.0962 21.2129L4.80093 34.5126ZM11.9911 12.7578L12.7507 11.998L30.9916 30.2793L30.2206 31.0506L11.9911 12.7578ZM40.1406 40.5283L40.5461 40.1227L39.2383 38.8602L38.8328 39.2658L40.1406 40.5283ZM41.1172 34.6954L38.6672 37.1348L37.1195 38.6831L34.7038 41.0996C34.3863 41.4102 33.879 41.4102 33.5616 41.0996L33.4645 41.0025C33.1569 40.6838 33.1569 40.1787 33.4645 39.8599L39.8265 33.4329C40.1463 33.1282 40.6489 33.1282 40.9687 33.4329L41.0601 33.53C41.2194 33.6805 41.3116 33.8888 41.3159 34.1079C41.3202 34.3271 41.2362 34.5388 41.083 34.6954H41.1172ZM38.6615 32.2674L41.1172 29.8394H41.083C41.3928 29.5239 41.3928 29.0182 41.083 28.7026L38.5644 26.1775C38.2446 25.8728 37.742 25.8728 37.4222 26.1775L33.3445 30.2508L30.2435 33.3586L26.1658 37.4376C25.8612 37.7576 25.8612 38.2603 26.1658 38.5802L28.6901 41.0996C29.0075 41.4102 29.5149 41.4102 29.8323 41.0996L32.2537 38.6773L38.6615 32.2674Z" fill="black"/>
</svg>
